# xmcd CD database file
#
# Track frame offsets:
#	150
#	11988
#	66020
#	124775
#	143857
#	235289
#
# Disc length: 3448 seconds
#
# Revision: 0
# Processed by: cddbd v1.5.1PL0 Copyright (c) Steve Scherf et al.
# Submitted via: CDex 1.51
#
DISCID=520d7606
DTITLE=Magenta - Another Time … Another Place …(CD1)
DYEAR=2004
DGENRE=Symphonic Rock
TTITLE0=Opus 3
TTITLE1=Gluttony
TTITLE2=Lust
TTITLE3=Broken
TTITLE4=Children of The Sun
TTITLE5=Call Me
EXTD=YEAR: 2004
EXTT0=
EXTT1=
EXTT2=
EXTT3=
EXTT4=
EXTT5=
PLAYORDER=
